<?xml version="1.0" encoding="UTF-8" standalone="no"?>
<!-- Created with Inkscape (http://www.inkscape.org/) -->

<svg
   version="1.1"
   id="svg1"
   width="853.32697"
   height="1569.0226"
   viewBox="0 0 853.32697 1569.0226"
   xmlns="http://www.w3.org/2000/svg"
   xmlns:svg="http://www.w3.org/2000/svg">
  <defs
     id="defs1" />
  <g
     id="g1"
     transform="translate(-54.504982,-31.779554)">
    <path
       style="fill:#000000;stroke-width:0.978512"
       d="m 411.7639,1595.2486 c -3.16551,-7.1628 -12.49924,-16.5139 -19.86598,-19.9025 -3.02713,-1.3926 -8.80109,-3.1245 -12.83103,-3.8488 l -7.32716,-1.3169 5.97773,-1.6441 c 10.54927,-2.9016 15.34794,-1.9665 24.34348,4.7441 5.37563,4.0101 5.59833,4.0862 4.62662,1.581 -1.50296,-3.8753 -5.43993,-8.8826 -10.62988,-13.5201 l -4.58573,-4.0975 4.31656,-0.02 c 3.69665,-0.018 4.83809,0.5019 7.94814,3.6131 1.99737,1.9983 4.60566,4.941 5.7962,6.5396 l 2.16462,2.9064 -0.6282,-3.3908 c -0.34551,-1.8649 -1.6485,-6.8652 -2.89553,-11.1117 -1.24702,-4.2466 -2.07912,-7.9053 -1.84909,-8.1309 0.68145,-0.668 3.61654,2.0723 5.56397,5.1947 2.18324,3.5005 2.16771,4.1417 0.35732,-14.7603 -6.3426,-66.2222 -9.88958,-158.8552 -8.33806,-217.7562 0.78979,-29.9832 1.67227,-35.8146 7.06512,-46.6857 5.77237,-11.6361 15.5587,-19.4066 27.15654,-21.5628 5.46718,-1.0165 17.58792,-0.051 22.34087,1.7812 1.53019,0.5895 3.19795,1.0719 3.70614,1.0719 1.07712,0 1.24267,-50.0478 0.27,-81.623 l -0.64912,-21.0722 h -5.73738 c -7.68537,0 -23.20853,-3.032 -34.48632,-6.736 C 365.52904,1126.438 320.40639,1073.96 292.0677,992.559 284.32793,970.32707 276.55881,937.3396 270.43,900.68597 l -1.15784,-6.92455 -4.62225,-0.65441 c -12.9066,-1.8272 -36.3852,-8.97689 -51.07161,-15.55226 C 186.0454,865.2278 159.38368,843.96297 140.72451,819.44808 94.464089,758.66998 65.690961,653.49887 55.774884,508.94156 c -1.644763,-23.9775 -1.709033,-96.40023 -0.09221,-103.96261 4.876109,-22.80777 22.696729,-35.52853 45.794816,-32.68937 10.45068,1.28458 17.31822,4.42716 24.64418,11.27719 4.84961,4.53454 6.43094,6.87046 9.04492,13.36102 l 3.16783,7.86572 0.74567,41.17482 c 0.83214,45.94859 2.20686,80.78129 4.35891,110.44536 7.7604,106.97013 27.02989,183.42076 57.14098,226.70367 6.82156,9.8056 21.04141,23.54436 31.28261,30.22428 8.72907,5.69362 25.36796,14.01549 26.26488,13.13626 0.28292,-0.27735 -1.04794,-11.34584 -2.95748,-24.59666 -23.67301,-164.2735 -52.97796,-435.98118 -53.32919,-494.45405 -0.0892,-14.8628 0.17885,-17.97022 2.17341,-25.1893 5.11866,-18.52631 14.98197,-31.90944 28.21078,-38.27808 16.36774,-7.87978 36.65966,-6.92562 50.44512,2.37205 9.21598,6.21575 15.10662,13.12897 20.33938,23.87019 8.03559,16.49447 10.20873,25.8495 12.34729,53.15305 0.79545,10.15583 2.78504,32.41617 4.42131,49.46738 1.63625,17.05121 5.87914,65.44372 9.42863,107.53891 14.97284,177.57045 18.54372,219.22777 22.29823,260.12794 10.04927,109.47273 18.51406,179.70954 25.16178,208.78051 6.81424,29.79915 20.69817,63.49406 34.20537,83.01316 9.76862,14.1164 23.58197,26.898 35.33205,32.6927 5.91931,2.9192 16.61276,6.5049 17.32294,5.8087 0.23492,-0.2304 0.17011,-77.45026 -0.14402,-171.59982 l -0.57114,-171.18109 -4.53843,-3.18796 C 443.72836,714.59858 428.59496,698.5602 416.38543,680.42264 377.12752,622.10404 350.241,507.50268 337.62813,344.72683 c -4.48104,-57.83035 -5.38283,-82.81892 -5.41923,-150.16696 -0.0387,-71.71716 -0.0957,-70.9679 6.40782,-84.32612 8.65171,-17.770647 26.41664,-26.121174 45.44301,-21.360792 15.45561,3.866985 24.23639,13.863042 30.71245,34.963132 0.85359,2.78115 1.40332,25.48427 1.94706,80.41197 1.70115,171.84382 8.80811,268.92343 25.63937,350.22809 5.44862,26.31991 16.63611,64.96531 19.71896,68.11597 0.4214,0.43069 1.02955,-77.82568 1.35143,-173.90303 0.56271,-167.95757 1.45092,-235.67261 3.66377,-279.31851 1.16563,-22.99063 1.97115,-28.71441 5.59018,-39.72158 8.40041,-25.5496 24.22792,-41.122759 44.95662,-44.234167 18.57384,-2.787962 34.43002,3.417418 47.8655,18.732367 5.7036,6.50152 8.73285,12.3001 12.8346,24.56822 7.00539,20.95292 6.63487,11.00507 8.9477,240.23187 l 0.71355,70.7238 2.2393,-11.14141 c 4.83863,-24.07378 10.59648,-67.78486 13.65528,-103.66365 4.02358,-47.19542 6.07095,-91.27689 7.4694,-160.82396 1.60204,-79.668706 2.42282,-97.133329 4.89111,-104.070625 6.11117,-17.175763 18.28182,-26.630996 36.07621,-28.027061 23.4889,-1.842831 40.02993,11.851031 44.51198,36.850314 1.59749,8.909941 0.35608,93.353492 -1.92709,131.093682 -9.91594,163.90016 -34.819,284.92423 -70.89739,344.54658 -8.31993,13.7492 -16.00794,23.5426 -27.02317,34.42345 l -9.48118,9.36554 -0.88483,165.99071 c -0.48654,91.29488 -0.90103,174.39934 -0.9209,184.67656 l -0.0366,18.68588 5.96639,-3.97182 c 14.91131,-9.92645 31.25923,-25.17449 44.87251,-41.8535 4.85227,-5.94501 7.17073,-9.89158 9.50243,-16.17498 18.77044,-50.58162 32.05086,-174.09698 40.94637,-380.82222 0.81397,-18.9162 2.59054,-66.21879 3.94778,-105.11688 5.47965,-157.03718 6.00078,-165.62398 10.91106,-179.77635 8.78463,-25.31866 27.54035,-39.66117 51.86495,-39.66117 18.04256,0 34.90952,9.10834 44.59707,24.0828 3.96536,6.12957 9.4286,23.18388 10.77566,33.63814 0.63518,4.92959 0.85923,13.43013 0.52143,19.78459 -0.32565,6.12778 -1.03248,26.61831 -1.57061,45.53449 -2.07208,72.8317 -7.0807,157.38414 -14.33148,241.935 -1.88371,21.96493 -3.38662,40.92956 -3.33987,42.14364 0.0721,1.87662 0.22602,1.77186 1.02655,-0.69905 4.69809,-14.50145 12.83954,-58.0653 17.10989,-91.55341 8.27813,-64.9169 10.75827,-110.49712 14.41776,-264.97201 0.54278,-22.91258 1.41881,-43.76143 1.94676,-46.33077 2.5516,-12.41852 11.8964,-24.71899 22.34019,-29.40601 21.25306,-9.53819 46.04098,-1.42518 54.92039,17.97529 5.33515,11.65665 5.73215,15.11973 5.73373,50.01094 0,90.71543 -8.24244,192.47816 -22.22169,274.22252 -15.71382,91.88725 -37.09061,152.18886 -66.77518,188.36544 -10.24761,12.48879 -20.68409,21.88045 -33.63006,30.26336 l -10.48244,6.78766 -2.22072,15.63694 c -13.93872,98.14726 -31.41933,166.3998 -50.90323,198.75029 -12.76867,21.20065 -45.06265,52.09424 -75.14501,71.88637 -9.97168,6.5607 -25.11455,14.451 -37.06136,19.3109 -9.67331,3.935 -12.33629,4.6219 -17.8866,4.6138 l -6.52112,-0.01 -0.6843,92.0906 c -0.37634,50.6495 -1.09326,134.1614 -1.59314,185.5814 -0.49989,51.4201 -1.21789,128.0416 -1.59562,170.27 l -0.68667,76.7789 2.37707,0.067 c 2.35522,0.066 2.35749,0.075 0.24964,1.0747 -1.79476,0.8514 -3.83491,6.2561 -2.79452,7.4028 0.15378,0.1695 2.62779,-0.3755 5.49792,-1.211 5.74234,-1.6718 12.34519,-2.0015 13.19157,-0.6591 0.29827,0.4731 -1.78793,1.9833 -4.63603,3.3562 -5.58608,2.6927 -12.59068,7.946 -12.59068,9.4426 0,0.5079 1.40665,0.2102 3.12591,-0.6613 2.78227,-1.4104 13.31738,-5.2469 14.40817,-5.2469 0.23284,0 -1.41219,2.0441 -3.65564,4.5426 -2.24354,2.4984 -5.64904,7.0762 -7.56783,10.1725 l -3.48881,5.63 -85.16952,-0.017 -85.16957,-0.017 z"
       id="path1" />
  </g>
</svg>
