<?xml version="1.0" encoding="UTF-8" standalone="no"?>
<!-- Created with Inkscape (http://www.inkscape.org/) -->

<svg
   version="1.1"
   id="svg1"
   width="981"
   height="909"
   viewBox="0 0 981 909"
   xmlns="http://www.w3.org/2000/svg"
   xmlns:svg="http://www.w3.org/2000/svg">
  <defs
     id="defs1" />
  <g
     id="g1">
    <path
       style="fill:#000000"
       d="m 458.20796,884.79734 -4.5,-1.46489 -37.5,-9.45484 -37.5,-9.45484 -2.1676,-0.60846 -2.16759,-0.60845 0.42412,4.34508 0.42412,4.34508 -0.58575,-1.5 -0.58576,-1.5 -0.52678,-1.5 -0.52678,-1.5 -1.45505,4.85561 -1.45504,4.85561 -0.56731,-0.5673 -0.5673,-0.56731 1.18243,-4.69587 1.18244,-4.69587 -1.30408,-0.83193 -1.30407,-0.83193 -1.5,0.55953 -1.5,0.55952 -3,0.4471 -3,0.44709 4,-1.90476 4,-1.90476 -1.5,-0.54307 -1.5,-0.54307 -13.5,-3.638 -13.5,-3.638 -24,-7.02619 -24,-7.02618 -17.16195,-5.40511 -17.16195,-5.40511 h -0.52518 -0.52518 l 0.42304,3.75 0.42303,3.75 -0.84826,-2.5 -0.84825,-2.5 -0.72118,2 -0.72118,2 -0.88981,2 -0.88982,2 0.22335,-5 0.22334,-5 -1.5,0.16073 -1.5,0.16074 -3.5,0.58175 -3.5,0.58175 3.75,-1.62818 3.75,-1.62818 v -0.66747 -0.66747 l -7.25,-2.30867 -7.25,-2.30866 -12.5,-4.484 -12.5,-4.48401 -9.84053,-4.90416 -9.84053,-4.90417 h -0.7331 -0.73311 l -1.05,3.75 -1.04999,3.75 -0.12637,-3.45821 -0.12637,-3.45821 -4.5,4.41642 -4.5,4.41642 v -0.7682 -0.7682 l 3.5,-4.58381 3.5,-4.58381 v -0.73376 -0.73375 l -1.59227,-1.32147 -1.59228,-1.32147 -7.65772,-1.18135 -7.65773,-1.18135 5.5,-0.17518 5.5,-0.17518 -2.9181,-2.19445 -2.9181,-2.19444 -7.57935,-6.25765 -7.57935,-6.25765 -0.38319,1.14958 -0.3832,1.14958 -1.46618,-3.39193 -1.46618,-3.39193 -0.75979,2 -0.75979,2 -1.2651,6.79495 -1.2651,6.79496 -0.33198,-0.33199 -0.33198,-0.33198 0.74233,-9.2909 0.74233,-9.29091 -1.53864,-0.8221 -1.53863,-0.8221 -6.43419,2.92197 -6.43419,2.92197 -0.88728,-0.29576 -0.88728,-0.29576 7.06907,-3.97617 7.06906,-3.97618 0.002,-0.68191 0.002,-0.6819 -2.75,-1.93751 -2.75,-1.93751 -4.34691,-2.20035 -4.3469,-2.20034 0.44336,-0.44337 0.44337,-0.44336 3.74428,1.56446 3.74429,1.56446 -0.75855,-1.30133 -0.75856,-1.30134 -3.01135,-3.87012 -3.01136,-3.87011 -5.68396,-11.34417 -5.68396,-11.34416 -1.16059,2.21428 -1.1606,2.21428 0.4976,-3.97644 0.49759,-3.97644 -5.42794,5.97644 -5.42795,5.97644 -0.0459,-0.7927 -0.0459,-0.7927 4.05662,-5.49124 4.05661,-5.49124 -0.579,-1.82426 -0.57899,-1.82426 -9.22762,-1.22046 -9.227615,-1.22046 -1.5,-0.36471 -1.5,-0.36472 10.999995,0.0801 11,0.0801 0.76257,-0.13669 0.76257,-0.13669 -3.47855,-6.90749 -3.47856,-6.90749 -9.784015,0.53439 -9.78326,0.53432 -6.499999,-1.64632 -6.5,-1.64633 -5.47116,-3.73058 -5.47117,-3.73057 -3.19218,-6.16998 -3.19218,-6.16999 -0.54389,0.54389 -0.54389,0.54389 0.54864,-3.87391 0.54864,-3.8739 1.00826,-3.317 1.00826,-3.317 -0.56557,-0.56557 -0.56557,-0.56557 4.87751,-4.77593 4.87751,-4.77593 5.69716,-1.27497 5.69717,-1.27497 7.141229,1.07123 7.14123,1.07123 1.7831,0.73193 1.7831,0.73193 -3.03667,-4.88497 -3.03665,-4.88497 -1.19967,-5.71944 -1.19967,-5.71945 1.28111,-6.26528 1.2811,-6.26527 4.3651,-4.14831 4.365085,-4.14831 3.04481,-1.51895 3.04481,-1.51895 5.26222,0.25298 5.26222,0.25299 3.05957,1.59148 3.05958,1.59148 -1.43265,-5.86435 -1.43265,-5.86435 0.68373,-5.47241 0.68373,-5.47242 3.36639,-5.59044 3.36639,-5.59044 -1.17705,-0.0439 -1.17704,-0.0439 3.90003,-1.38984 3.90003,-1.38985 0.59997,-0.81626 0.59997,-0.81625 2.45629,-0.27476 2.45628,-0.27476 0.54372,-0.82113 0.54371,-0.82113 5.5,1.24286 5.5,1.24285 2,0.6434 2,0.6434 1.83131,-4.49746 1.83131,-4.49746 3.81498,-3.44661 3.81499,-3.44661 -1.1463,-1.20869 -1.14629,-1.20869 2.11792,0.63786 2.11792,0.63786 2.88208,-1.1613 2.88208,-1.16131 4.67884,0.0792 4.67884,0.0792 4.01323,2.04739 4.01323,2.0474 2.69049,3.52742 2.6905,3.52743 2.15783,-6.41199 2.15783,-6.41198 2.95961,-4.27762 2.9596,-4.27762 3.82585,-2.77485 3.82586,-2.77485 4.40396,-1.68189 4.40396,-1.68189 -0.49613,-0.80275 -0.49612,-0.80275 1.01631,-0.62812 1.01631,-0.62811 0.003,1.30901 0.003,1.30902 3.99683,0.0487 3.99683,0.0487 0.0153,-1.04873 0.0153,-1.04872 0.73468,1.1003 0.73469,1.10029 2.18426,1.14971 2.18426,1.1497 h 0.49241 0.49242 l 0.45732,-1.75 0.45733,-1.75 0.116,2.08948 0.116,2.08949 2.46746,1.12425 2.46745,1.12425 2.93724,4.05473 2.93723,4.05473 1.22666,5.11331 1.22666,5.11331 -0.65419,7.03891 -0.6542,7.03891 -3.03313,9.07931 -3.03313,9.07932 -3.0894,5.5 -3.0894,5.5 -1.46964,2.25 -1.46963,2.25 h 4.09001 4.09001 l -0.49411,-3.25 -0.49412,-3.25 0.90453,2 0.90454,2 0.71838,-3 0.71839,-3 0.87062,-3 0.87063,-3 -0.55965,6.13831 -0.55966,6.13831 1.14558,0.70801 1.14558,0.70801 2.97171,-1.23092 2.97171,-1.23092 0.55634,0.55634 0.55635,0.55634 -2.8368,1.48635 -2.8368,1.48635 3.99839,0.67937 3.99839,0.67937 9.44932,2.44187 9.44933,2.44187 8.55067,3.40384 8.55068,3.40383 1.41147,0.31684 1.41148,0.31683 0.78466,-2.5 0.78466,-2.5 -0.19613,3 -0.19614,3 4.40969,2.65734 4.40969,2.65733 1.59031,-0.56666 1.59031,-0.56667 -0.74725,0.82325 -0.74725,0.82324 9.53697,6.37756 9.53697,6.37755 5.51187,1.10694 5.51186,1.10695 1.15562,-1.15562 1.15562,-1.15562 -1.76034,-6.60633 -1.76033,-6.60633 0.39666,-0.39666 0.39666,-0.39666 1.63952,3.76019 1.63952,3.7602 1.17305,3 1.17304,3 0.68828,-3.76104 0.68828,-3.76105 0.75426,-0.73895 0.75425,-0.73896 -0.71513,6.75 -0.71512,6.75 h 4.61686 4.6165 v -0.60169 -0.60169 l -8.87445,-15.64831 -8.87444,-15.64831 -4.74308,-9.46403 -4.74308,-9.46402 -2.37534,2.76149 -2.37533,2.76149 -0.45368,2.20253 -0.45367,2.20254 -0.91769,7 -0.91768,7 -0.13578,-7.25 -0.13578,-7.24992 h -0.63197 -0.63196 l -3.42064,2.11407 -3.42063,2.11407 -0.46981,-0.46982 -0.46981,-0.46981 3.40609,-2.33389 3.4061,-2.33389 -0.21223,-1.44602 -0.21224,-1.44603 -3.42145,-1.82242 -3.42145,-1.82243 1.1849,-0.0419 1.1849,-0.0419 2.51723,0.95705 2.51724,0.95705 -0.61227,-1.70705 -0.61226,-1.70705 2.65619,2.42061 2.65618,2.42061 0.25395,-0.42061 0.25394,-0.42064 2.36873,-2.69083 2.36872,-2.69083 -4.67408,-11.30917 -4.67408,-11.30917 -0.96849,-2.34939 -0.96849,-2.34938 -2.44097,1.59938 -2.44097,1.59939 h -0.72228 -0.72227 l 2.74102,-2.86101 2.74103,-2.86102 -0.64387,-2.56539 -0.64387,-2.56539 -1.91007,-1.72858 -1.91006,-1.72859 v -0.90402 -0.90403 l 1,0.61803 1,0.61803 v -0.49531 -0.49531 l -2.50815,-10.3137 -2.50815,-10.31371 -1.49185,-11.30122 -1.49185,-11.30121 v -11.39757 -11.39757 l 1.48928,-11.36087 1.48928,-11.36088 2.31694,-9.19034 2.31694,-9.19034 -10.05622,-0.008 -10.05622,-0.008 -8.5,-0.9729 -8.5,-0.9729 -4.15748,-0.61918 -4.15748,-0.61918 -0.47652,1.84967 -0.47652,1.84967 -0.1195,-2 -0.1195,-2 -10.2465,-2.34532 -10.2465,-2.34449 -13.58103,-4.40469 -13.58104,-4.40468 h -0.57535 -0.57534 l 0.43728,2.25 0.43728,2.25 -1.70686,-3.23846 -1.70686,-3.23846 -2.01589,-0.63982 -2.01589,-0.63982 -2.42202,2.87828 -2.42203,2.87828 0.51794,-1.5 0.51794,-1.5 0.74721,-1.8654 0.7472,-1.8654 -2.40127,0.7278 -2.40127,0.72779 1.158,-1.22039 1.15799,-1.22039 -12.65799,-6.25643 -12.658,-6.25643 -5.32035,-3.15111 -5.32036,-3.15111 -0.92964,0.57455 -0.92965,0.57455 v -1.02296 -1.02297 l -3.7411,-2.54214 -3.7411,-2.54215 -1.81657,2.2561 -1.81657,2.25609 0.60505,-3.10395 0.60504,-3.10395 -2.51219,-1.64605 -2.51219,-1.64605 -2.28519,-0.0153 -2.28518,-0.0153 1.2147,-0.77189 1.21471,-0.77189 -7.05888,-5.38332 -7.05889,-5.38332 -10.28201,-9.81683 -10.28202,-9.81683 -5.78143,-7.06662 -5.78142,-7.06663 -0.82707,1.30398 -0.82706,1.30398 -0.0153,-2.30487 -0.0153,-2.3049 -4.03726,-5.94513 -4.037255,-5.94513 -2.21274,-0.0304 -2.21274,-0.0304 1.61228,-0.94221 1.61228,-0.94221 -4.84846,-9.40314 -4.848469,-9.40315 -3.46814,-10.37425 -3.46815,-10.37424 -1.54567,-8.88099 -1.54567,-8.88099 v -4.84401 -4.84401 l -3.25,0.48481 -3.25,0.48482 2.65793,-1.06246 2.65792,-1.06245 0.6507,-5.69736 0.65069,-5.69736 -0.0674,-3.5 -0.0674,-3.5 0.59999,-3.59416 0.59999,-3.59417 -10.3412,-0.58701 -10.34122,-0.58701 -7.74394,-2.46069 -7.74394,-2.4607 -5.12609,-3.2894 -5.12609,-3.2894 -3.87707,-4.90487 -3.87708,-4.90486 -1.56516,-5.38397 -1.56516,-5.38397 -0.0316,-3.77989 -0.0316,-3.7799 1.04376,-2.68336 1.04377,-2.68336 -1.19991,-0.48769 -1.19992,-0.4877 1.71482,-0.0789 1.71481,-0.0789 1.08143,-2.02067 1.08143,-2.02066 -0.535,-0.86565 -0.53499,-0.86564 2.11863,-0.55403 2.11863,-0.55404 -0.64122,-1.671 -0.64122,-1.67099 1.42583,0.54714 1.42582,0.54714 3.79696,-1.9358 3.79695,-1.93589 h 5.10705 5.10706 l 5.4315,1.61031 5.4315,1.61031 3.91001,1.99165 3.91001,1.99164 -3.67236,-5.00276 -3.67236,-5.00275 -1.88819,-4.3492 -1.88819,-4.3492 -0.67973,-4.20485 -0.67973,-4.20486 1.29354,-5.79514 1.29354,-5.79515 0.0367,-1 0.0367,-1 4.544,-4.54335 4.54401,-4.54336 3.20599,-1.32796 3.206,-1.32797 v -0.67009 -0.67008 l 5.75,0.21401 5.75,0.21402 2.880609,1.10229 2.88061,1.1023 2.77376,1.9751 2.77376,1.97509 h 0.5008 0.5008 l -0.53872,-5.9411 -0.53871,-5.94109 1.2003,-4.76684 1.2003,-4.76684 3.183245,-5.16292 3.18324,-5.16292 4,-2.33641 4,-2.33641 2.5,-0.35417 2.5,-0.35417 0.29795,-0.83241 0.29794,-0.8324 2.05442,0.53724 2.05441,0.53724 0.88233,-1.3934 0.88232,-1.3934 0.0153,1.13871 0.0153,1.13871 3.47715,0.65232 3.47715,0.65231 4.43208,3.38308 4.43207,3.38308 0.59078,-0.59077 0.59077,-0.59077 v -2.17361 -2.17362 l 3.04683,-6.097245 3.04683,-6.09725 3.31043,-2.81248 3.31043,-2.81247 2.13983,-1.737716 2.13982,-1.737716 3.95266,-0.632056 3.95265,-0.632055 0.43426,-1.630229 0.43429,-1.630228 0.116,1.859406 0.116,1.859406 3.5,-0.408605 3.5,-0.408606 v 0.868751 0.86875 l 2.16431,-0.319551 2.16431,-0.319551 4.36378,4.015926 4.36377,4.015924 2.31033,4.79366 2.31034,4.793655 2.14506,-5.605395 2.14506,-5.6054 3.09911,-4.504406 3.09912,-4.504411 4.66741,-3.424948 4.6674,-3.424947 4.75,-1.605196 4.75,-1.605195 0.0153,-1.169634 0.0153,-1.169633 0.73468,1 0.73469,1 4.25,0.04872 4.25,0.04872 v -0.989853 -0.989853 l 1.25744,1.719655 1.25745,1.719655 2.99255,0.221475 2.99259,0.221481 1.35375,1.817174 1.35376,1.817175 1.39624,-0.53579 1.39625,-0.535789 v 1.0866 1.0866 l 2.97336,3.38647 2.97336,3.386471 1.66062,5.712319 1.66061,5.71232 -0.5617,8.670005 -0.56171,8.67001 -3.044,9.08573 -3.044,9.08573 -3.16121,6.27749 -3.16122,6.27749 -3.0389,4.5 -3.0389,4.5 -3.82815,4.63878 -3.82816,4.63878 0.0119,1.36122 0.0119,1.36122 6.23814,3.5 6.23813,3.5 1.71147,-0.23138 1.71147,-0.23139 -0.46781,1.23139 -0.46781,1.23138 4.56998,2.88209 4.56998,2.88208 8.09895,6.53897 8.09894,6.53898 6.96268,6.56823 6.96268,6.56824 -0.6181,-8.48929 -0.6181,-8.4893 2.05251,9.47786 2.05251,9.47787 1.19032,0.75682 1.19033,0.75682 0.51833,0.0153 0.51833,0.0153 4.87219,-4.02614 4.87219,-4.02615 0.54711,0.54711 0.54711,0.54711 -4.43763,4.58223 -4.43763,4.58223 3.5,-0.59174 3.5,-0.59173 -3.65241,1.77763 -3.6524,1.77763 6.47745,7.46091 6.47746,7.46091 8.17495,10.58414 8.17495,10.58415 3.40134,4.9098 3.40134,4.9098 0.77838,-1.99394 0.77837,-1.99395 0.0703,3.22766 0.0703,3.22765 4.14621,-4.49811 4.14622,-4.49811 0.45192,0.45192 0.45192,0.45193 -3.59814,4.71233 -3.59823,4.71236 v 1.29719 1.29718 l 1.25,0.78155 1.25,0.78155 7,1.16973 7,1.16973 -6.68703,0.10773 -6.68703,0.10774 7.00019,11.75 7.00019,11.75 6.84171,14 6.84171,14 4.54313,11.5 4.54313,11.5 2.802,9.74365 2.802,9.74365 0.81982,0.006 0.81983,0.006 4.18017,-2.86975 4.18018,-2.86975 9,-4.48831 9,-4.48831 8,-2.62137 8,-2.62137 7.5,-1.60419 7.5,-1.6042 12.5,-0.54676 12.5,-0.54676 8.65899,1.15551 8.659,1.15552 8.27929,2.09366 8.2793,2.09366 7.00776,2.85183 7.00776,2.85183 0.26728,-0.26728 0.26728,-0.26728 -1.42591,-4.73793 -1.4259,-4.73792 -1.51019,-10.13957 -1.51019,-10.13956 -1.27724,-0.81054 -1.27723,-0.81053 1,-0.0155 1,-0.0155 0.11058,-21.41497 0.11058,-21.41497 -1.61058,0.57524 -1.61058,0.57525 2.25,-2.47458 2.25,-2.47458 v -1.54089 -1.54089 l -3.25,-1.1187 -3.25,-1.11871 3.29295,0.30716 3.29294,0.30715 -0.51156,-1.33311 -0.51156,-1.33233 h 0.88072 0.88071 l 0.66701,-4.25 0.66701,-4.25 2.56765,-11.5 2.56764,-11.5 0.21179,-1.5 0.2118,-1.5 0.99787,-2.5 0.99787,-2.5 0.48404,-1.5 0.48404,-1.5 -3.59046,-1.22399 -3.59046,-1.22399 3.75702,0.52062 3.75702,0.52062 1.01845,-2.67871 1.01844,-2.67871 -0.60082,-1.89304 -0.60083,-1.89304 1.08079,0.27512 1.08079,0.27512 4.43548,-10.22435 4.43548,-10.22435 4.22164,-7.27565 4.22164,-7.27565 3.83745,-5.69513 3.83745,-5.69513 v -0.48532 -0.48532 l -2.25,-0.43337 -2.25,-0.43337 3.09346,-0.13618 3.09347,-0.13618 4.15358,-4.92591 4.15359,-4.9259 -0.68428,-1.8241 -0.68428,-1.82409 1.51274,1.22763 1.51274,1.22764 3.42449,-3.59967 3.42449,-3.59966 4.7357,-3.79569 4.7357,-3.79568 -4.56818,-2.21142 -4.56818,-2.21142 -5.99513,-5.55043 -5.99513,-5.55043 -4.44143,-6.2241 -4.44142,-6.2241 -2.84757,-6.34634 -2.84756,-6.346335 -1.32364,-5.5 -1.32363,-5.5 0.0931,-7 0.0931,-7 2.13045,-5.647094 2.13044,-5.647094 3.96666,-4.506356 3.96672,-4.506356 v -1.09655 -1.09655 l 0.75,0.20298 0.75,0.202981 3.77626,-1.413364 3.77625,-1.413363 -0.49487,-1.289617 -0.49487,-1.289617 h 0.96861 0.96862 v 1.113499 1.1135 l 3.25,-0.592474 3.25,-0.592474 3.75,-0.380718 3.75,-0.380717 v 0.658803 0.658804 l 3.54184,1.280747 3.54184,1.280746 4.12093,3.920142 4.12092,3.920142 h 0.17895 0.17894 l 1.24487,-4.25 1.24487,-4.25 2.34277,-4.05752 2.34278,-4.05752 4.56038,-4.203614 4.56038,-4.203615 -0.23973,-0.655985 -0.23974,-0.655984 2,-0.165867 2,-0.165868 2.5,-0.801795 2.5,-0.801794 0.73469,-1.115219 0.73468,-1.115219 0.0153,1.25 0.0153,1.25 h 3.5 3.5 l 0.0153,-1.25 0.0153,-1.25 0.87832,1.386911 0.87831,1.38691 2.60637,-0.498239 2.6064,-0.498238 v 0.766306 0.766306 l 4.32018,2.531797 4.32019,2.531796 2.92981,4.293402 2.92982,4.293401 1.47224,1.769824 1.47224,1.769824 h 2.69443 2.69442 l 0.50439,-1.25 0.50439,-1.25 0.0789,1.866577 0.0789,1.866577 2.5,-0.477905 2.5,-0.477905 v 0.838275 0.838275 l 2.62908,1.722641 2.62908,1.72264 2.89847,-3.613018 2.89846,-3.613019 4.72246,-2.997169 4.72254,-2.997169 4.25,-1.247688 4.25,-1.247687 v -0.90073 -0.900729 l 1.14975,0.710583 1.14975,0.710583 3.55919,0.319375 3.5592,0.319374 0.77574,-1.220941 0.77574,-1.22094 0.0389,1.5 0.0389,1.5 5.22643,2.402743 5.22643,2.402744 1.26582,-0.200214 1.26583,-0.200214 -0.21566,0.797471 -0.21565,0.79747 3.15803,4.879873 3.15804,4.879874 0.67581,4.506634 0.67581,4.506635 -0.57145,7.113492 -0.57147,7.113492 -2.56257,7.425152 -2.56257,7.425148 v 0.24377 0.24377 l 8.75,-8.747908 8.75,-8.747905 8.5,-4.171614 8.5,-4.171615 6.5,-0.887897 6.5,-0.887897 5.6703,0.889872 5.6703,0.889872 4.5797,1.963088 4.5797,1.963089 v -0.465607 -0.465608 l 3.89254,4.010997 3.89254,4.010996 1.85746,-0.697082 1.85746,-0.697083 -1.27256,1.56688 -1.27256,1.566879 1.77256,3.114029 1.77256,3.114029 1.5,0.02164 1.5,0.02164 -1.2124,0.770466 -1.2124,0.770466 0.57903,2.214223 0.57903,2.21421 h 0.66005 0.66005 l -0.61086,7.25 -0.61086,7.250005 -2.65373,5.1929 -2.65373,5.1929 -5.26209,5.36659 -5.26209,5.36659 -6.37739,4.31428 -6.3774,4.31428 -9.1226,4.31439 -9.12261,4.31439 -9,2.63374 -9,2.63373 -8.29608,0.67811 -8.29608,0.6781 2.62508,3.5 2.62508,3.5 2.671,5 2.671,5 0.58189,-6 0.58189,-6 0.16811,8.55887 0.16811,8.55887 1.32605,1.81348 1.32605,1.81349 4.15408,-2.62236 4.15408,-2.62235 0.76987,0.0376 0.76987,0.0375 -4,3.44758 -4,3.44758 2.5,0.13319 2.5,0.13319 -3,0.65276 -3,0.65276 0.0599,2.97892 0.0599,2.97893 0.64933,6.5 0.64932,6.5 -1.01989,9.97978 -1.01988,9.97979 1.11365,0.37122 1.11365,0.37121 -1.48768,1.149 -1.48768,1.149 -1.51626,5.92564 -1.51626,5.92563 1.70094,1.37615 1.70093,1.37614 -2,-0.5383 -2,-0.53829 -2.75676,7.79523 -2.75675,7.79524 -5.80518,11.76729 -5.80517,11.76729 3.56193,-0.55318 3.56193,-0.55317 -4.40922,2.00378 -4.40922,2.00378 -1.33549,1.72338 -1.33549,1.72339 4.71733,4.25 4.71733,4.25 h -0.79245 -0.79244 l -4.46778,-3.07391 -4.46778,-3.07391 0.60073,2.82391 0.60072,2.82391 -1.15118,-1.81857 -1.15119,-1.81857 -6.34229,9.31857 -6.34229,9.31857 -9.06964,11.31174 -9.06962,11.31174 v 0.3687 0.36871 l 2.25,0.43337 2.25,0.43337 -3.09501,0.13618 -3.09501,0.13618 -1.72769,1.90907 -1.72769,1.90908 1.64644,3.18385 1.64643,3.18386 -0.53629,0.5363 -0.5363,0.53629 -1.19795,-2.62922 -1.19796,-2.62923 h -1.00189 -1.00188 l -11.95156,11.75 -11.95155,11.75 -1.16976,1.10514 -1.16976,1.10514 -9.96628,7.81165 -9.96629,7.81165 -8.25233,5.39774 -8.25234,5.39774 -9.30823,4.40935 -9.30824,4.40936 -5.43943,1.20516 -5.43943,1.20517 -0.34495,0.24923 -0.34495,0.24924 7.56432,11.35865 7.56433,11.35864 6.85565,13.46307 6.85564,13.46307 6.06612,15.5 6.06612,15.5 3.69589,11.26306 3.69589,11.26306 7.10316,-6.57644 7.10316,-6.57644 8.98922,-6.01279 8.98922,-6.01279 5.57059,-2.79465 5.57059,-2.79464 6.25,-2.26318 6.25,-2.26317 v -0.64292 -0.64292 l -4.11291,-5.47309 -4.11292,-5.47309 -3.2472,-6.5 -3.24721,-6.5 -1.63653,-5 -1.63653,-5 -0.87519,-7 -0.87518,-7 0.88519,-6.5 0.88519,-6.5 2.49881,-5.12454 2.49881,-5.12454 5.2297,-4.87546 5.2297,-4.87546 0.008,-0.91264 0.008,-0.91264 2.5,-0.25901 2.5,-0.259 6.25,-0.71725 6.25,-0.71724 v -1.05224 -1.05224 l 1.35046,1.84687 1.35046,1.84686 2.10159,-0.54958 2.1016,-0.54957 0.29794,0.64384 0.29795,0.64384 4.33053,2.94181 4.33053,2.94181 2.16947,3.80049 2.16947,3.80049 0.59171,0.008 0.59171,0.008 1.1641,-3.75 1.16409,-3.75 3.41463,-4.62697 3.41462,-4.62696 5.07957,-3.29145 5.07957,-3.29145 0.005,-0.58158 0.005,-0.58159 4.70116,-0.27446 4.70116,-0.27445 0.67285,-1.0887 0.67285,-1.0887 0.37105,0.95464 0.37105,0.95464 3.25,0.63352 3.25,0.63351 v -1.04643 -1.04643 l 1.60537,1.60538 1.60537,1.60537 1.91975,-0.60931 1.91975,-0.6093 -0.22813,0.82536 -0.22813,0.82536 4.55468,4.5 4.55467,4.5 2.14833,5.78751 2.14834,5.78752 v 2.04582 2.04582 l 0.75,-0.39574 0.75,-0.39575 4.23983,-1.93759 4.23983,-1.93759 0.0102,-1.25 0.0103,-1.2506 h 1 1 v 0.84589 0.84589 l 4.51076,-0.0959 4.51076,-0.0959 -0.47937,-1.25 -0.47938,-1.25 h 0.96861 0.96862 v 1.39159 1.39159 l 2.65514,0.6664 2.65515,0.6664 0.82954,-1.30799 0.82954,-1.30799 0.13374,1 0.13373,1 -0.10847,0.72014 -0.10847,0.72015 1.99005,1.06504 1.99005,1.06504 v -0.60639 -0.60638 l 3.60329,3.82059 3.60328,3.8206 1.52574,2.95045 1.52574,2.95046 1.1636,6.90585 1.1636,6.90584 3.62791,-5.87767 3.62791,-5.87768 6.04824,-5.76905 6.04825,-5.76905 5.78122,-2.68732 5.78122,-2.68732 9,0.002 9,0.002 0.73469,-1.02413 0.73468,-1.02413 0.0153,1.58948 0.0153,1.58949 2.31926,1.05673 2.31926,1.05672 4.70679,4.0737 4.70678,4.07369 -0.0906,0.28009 -0.0906,0.2801 0.66934,1.74426 0.66933,1.74425 0.77021,-0.47602 0.77022,-0.47602 0.27516,2.73177 0.27516,2.73176 0.0447,7 0.0447,7 -3.11105,6.05543 -3.11106,6.05543 -4.73252,5.80965 -4.73251,5.80966 -7.97578,6.30675 -7.97577,6.30675 -7.84622,4.32816 -7.84623,4.32817 0.0265,0.5 0.0265,0.5 5.42957,4.28543 5.42957,4.28543 5.76461,6.88676 5.76462,6.88677 0.68713,0.0778 0.68713,0.0778 -0.39615,-3.75 -0.39614,-3.75 1.13538,3.75 1.13538,3.75 0.57364,-0.035 0.57363,-0.0349 5.48476,-8.56091 5.48475,-8.56091 7.2194,-6.85772 7.2194,-6.85773 5.29585,-3.05682 5.29584,-3.05682 6.35534,-1.98959 6.35534,-1.98959 7.1447,0.0326 7.1447,0.0326 5.5,1.99966 5.5,1.99965 1.0888,0.25269 1.0889,0.25268 3.9111,3.70634 3.9112,3.70634 0.75,0.009 0.7501,0.009 v -1.05902 -1.05901 l 1.0485,0.64804 1.0486,0.64805 -1.1114,1.33913 -1.1114,1.33914 1.5885,3.07184 1.5885,3.07183 1.7243,0.0153 1.7244,0.0153 -1.3571,0.85984 -1.357,0.85984 0.6744,2.12484 0.6744,2.12485 h 0.7213 0.7214 l -0.6348,6.92522 -0.6348,6.92523 -2.6931,5.50458 -2.6932,5.50458 -5.4138,5.50108 -5.4139,5.50108 -6.1668,4.18776 -6.1667,4.18775 -10.2963,4.91842 -10.2963,4.91842 -10.83389,2.74027 -10.8339,2.74027 -0.25573,1.97267 -0.25573,1.97267 0.92458,1.42772 0.92458,1.42771 7.69086,-2.23467 7.69086,-2.23467 0.45725,0.45725 0.45725,0.45725 -7.81671,3.01797 -7.81671,3.01797 2.49975,0.5428 2.49975,0.5428 2,0.42293 2,0.42294 -5.31739,0.116 -5.31739,0.116 0.55803,1.75817 0.55802,1.75817 1.49496,10.49183 1.49497,10.49183 0.64679,14 0.64679,14 -1.207,16 -1.207,16 -1.93191,11.5 -1.9319,11.5 -3.5793,11.5 -3.5793,11.5 -6.29522,13.14256 -6.29522,13.14256 -8.14588,12.01869 -8.14587,12.01869 -7.10785,8.33875 -7.10784,8.33875 -7.11524,7.33497 -7.11525,7.33497 -10,8.6823 -10,8.68229 -8.5,6.40095 -8.5,6.40095 -0.46215,0.37726 -0.46214,0.37727 1.21214,1.94095 1.21215,1.94095 -0.0333,0.76357 -0.0333,0.76357 -1.89213,-2.26866 -1.89213,-2.26865 -6.3246,4.40013 -6.3246,4.40013 -10.55642,6.50555 -10.55642,6.50555 -12.94358,6.97813 -12.94358,6.97813 -13.5,6.24835 -13.5,6.24835 -12.5,5.02514 -12.5,5.02513 -14.5,4.92046 -14.5,4.92045 -13.56688,3.85013 -13.56688,3.85013 -13.93312,3.04083 -13.93312,3.04082 -14,2.16818 -14,2.16817 -24.5,0.38669 -24.5,0.38668 -6.69155,0.99509 -6.6915,0.99512 -10.30844,-0.0669 -10.30845,-0.0669 z m -343.40641,-181.75415 -0.64649,-3.4461 -1.97355,0.5161 -1.97355,0.51609 v 0.479 0.479 l 2.10909,2.96194 2.10909,2.96195 0.51095,-0.51095 0.51095,-0.51094 z m 272.81686,-6.63225 -5.76529,-10.14268 -2.54543,0.63886 -2.54542,0.63887 1.82081,-2.01197 1.8208,-2.01197 -0.61708,-0.99846 -0.61708,-0.99846 -5.60172,-2.56456 -5.60173,-2.56455 h -0.45163 -0.45164 l 2.32248,2.85997 2.32248,2.85997 6.45151,7.39003 6.45151,7.39003 0.79849,-0.25 0.79849,-0.25 v 1.303 1.30299 l 3.12048,4.2432 3.12048,4.24319 0.46739,-0.4674 0.46739,-0.46739 z m -10.41045,-18.00645 v -0.99152 l -1.90022,-1.18671 -1.90022,-1.18671 0.38971,-1.07176 0.38972,-1.07177 -0.90415,-1.42093 -0.90415,-1.42093 -2.7244,1.78509 -2.72439,1.7851 4.38905,2.82164 4.38905,2.82165 0.75,0.0642 0.75,0.0642 z m -15.54411,-10.25847 -0.49412,-3.25 0.84661,1.93362 0.84661,1.93363 0.55715,-0.93363 0.55715,-0.93362 0.69008,-4.17204 0.69008,-4.17204 -2.32472,-4.07026 -2.32473,-4.07026 -1,-0.002 -1,-0.002 -5.85495,0.95887 -5.85495,0.95886 -1.45914,1.21098 -1.45914,1.21098 8.81409,8.27518 8.81409,8.27518 0.225,0.0492 0.225,0.0492 z m 9.04292,1.25192 0.61684,-0.99807 -2.4515,-4.111 -2.4515,-4.11099 -0.68802,4.07237 -0.68803,4.07237 0.64072,1.0367 0.64071,1.0367 h 1.88197 1.88197 z m -27.49881,-17.40409 v -1.40218 l -3.18653,-1.11083 -3.18654,-1.11083 2.36085,2.513 2.36085,2.51301 h 0.82568 0.82569 z m -138.40637,-37.36314 1.09363,-0.73469 -1.19164,-2.86728 -1.19163,-2.86728 -0.652,1.69907 -0.65199,1.69906 v 1.91822 1.91821 l 0.75,-0.0153 0.75,-0.0153 z m 506.14752,-159.9228 4.33158,-0.59371 -0.28637,-0.6745 -0.28636,-0.6745 -3.5,-6.68089 -3.5,-6.68089 -0.52195,-0.004 -0.52194,-0.004 -1.22041,6.25 -1.22042,6.25 -0.66838,2.41867 -0.66838,2.41867 1.86553,-0.71587 1.86553,-0.71587 z M 91.998265,203.85299 l -0.39303,-0.39303 -3.94863,-1.62724 -3.948639,-1.62724 3.4551,3.60448 3.455089,3.60448 0.88657,-1.58421 0.88657,-1.58422 z m 104.510205,-54.20697 -1.59743,-3.75 -1.66962,-5.5 -1.66962,-5.5 -2.20082,7.21748 -2.20083,7.21748 -0.55969,1.45851 -0.55968,1.45852 2.82859,0.42417 2.82859,0.42418 3.19897,0.14983 3.19898,0.14983 z m 494.71136,-18 0.0119,-4.75 1.5554,-5.5 1.5554,-5.5 0.61131,-2 0.61132,-2 -4.47815,5.48693 -4.47815,5.48693 -4.13952,3.15732 -4.13952,3.15731 0.60575,0.60576 0.60572,0.60575 h 1.83334 1.83333 v 0.9018 0.9018 l 3.25,2.08135 3.25,2.08136 0.75,0.0168 0.75,0.0169 z m -97.38399,-5.86885 3.87212,-1.61885 2.5,-1.03481 2.5,-1.0348 1.44118,-0.28592 1.44119,-0.28592 2.319,-0.58203 2.319,-0.58204 -3.73171,-3.22839 -3.7317,-3.22839 -2.28081,-2.5 -2.28081,-2.5 -2.07923,-3.25 -2.07923,-3.25 h -0.91844 -0.91844 l -0.0156,5.75 -0.0156,5.75 -1.44876,6 -1.44876,6 -0.0356,0.75 -0.0357,0.75 h 0.37788 0.37787 z"
       id="path1" />
  </g>
</svg>
